<svg width="378" height="413" viewBox="0 0 378 413" fill="none" xmlns="http://www.w3.org/2000/svg">
<path d="M59.8034 5.8173V58.9312C59.8034 67.9542 57.3391 74.854 52.4106 79.6309C47.558 84.4077 40.8476 86.7961 32.2797 86.7961C23.1809 86.7961 15.9019 84.2561 10.4427 79.1759C5.05924 74.0958 2.36753 66.7789 2.36753 57.2252H24.432C24.5078 63.5185 26.8204 66.6652 31.3698 66.6652C35.4642 66.6652 37.5114 64.0872 37.5114 58.9312V5.8173H59.8034ZM95.4004 23.6736V36.753H120.991V53.6995H95.4004V68.1437H124.403V86H73.1085V5.8173H124.403V23.6736H95.4004ZM132.688 45.7381C132.688 37.8525 134.319 30.8389 137.579 24.6972C140.915 18.4797 145.616 13.665 151.682 10.2529C157.748 6.76509 164.724 5.02117 172.609 5.02117C182.618 5.02117 191.034 7.71288 197.858 13.0963C204.682 18.4039 209.08 25.645 211.051 34.8196H187.053C185.613 31.7866 183.603 29.474 181.025 27.8818C178.523 26.2895 175.604 25.4933 172.268 25.4933C167.112 25.4933 162.98 27.351 159.871 31.0663C156.838 34.7058 155.322 39.5964 155.322 45.7381C155.322 51.9555 156.838 56.9219 159.871 60.6372C162.98 64.2767 167.112 66.0965 172.268 66.0965C175.604 66.0965 178.523 65.3004 181.025 63.7081C183.603 62.1158 185.613 59.8032 187.053 56.7703H211.051C209.08 65.9448 204.682 73.2238 197.858 78.6073C191.034 83.9149 182.618 86.5687 172.609 86.5687C164.724 86.5687 157.748 84.8627 151.682 81.4506C145.616 77.9628 140.915 73.148 137.579 67.0064C134.319 60.7889 132.688 53.6995 132.688 45.7381ZM262.21 86L246.288 56.4291H243.899V86H221.607V5.8173H256.751C263.196 5.8173 268.655 6.95465 273.129 9.22934C277.602 11.4282 280.977 14.499 283.251 18.4418C285.526 22.3088 286.663 26.6686 286.663 31.5213C286.663 36.9805 285.147 41.7953 282.114 45.9655C279.157 50.06 274.797 52.9791 269.035 54.7231L287.118 86H262.21ZM243.899 41.1887H254.931C257.964 41.1887 260.239 40.4684 261.756 39.0277C263.272 37.5871 264.03 35.502 264.03 32.7723C264.03 30.1944 263.234 28.1851 261.642 26.7444C260.125 25.228 257.889 24.4697 254.931 24.4697H243.899V41.1887ZM294.071 45.7381C294.071 37.8525 295.701 30.8389 298.962 24.6972C302.298 18.4797 306.999 13.665 313.065 10.2529C319.131 6.76509 326.106 5.02117 333.992 5.02117C344.001 5.02117 352.417 7.71288 359.241 13.0963C366.065 18.4039 370.463 25.645 372.434 34.8196H348.436C346.996 31.7866 344.986 29.474 342.408 27.8818C339.906 26.2895 336.987 25.4933 333.651 25.4933C328.495 25.4933 324.362 27.351 321.254 31.0663C318.221 34.7058 316.704 39.5964 316.704 45.7381C316.704 51.9555 318.221 56.9219 321.254 60.6372C324.362 64.2767 328.495 66.0965 333.651 66.0965C336.987 66.0965 339.906 65.3004 342.408 63.7081C344.986 62.1158 346.996 59.8032 348.436 56.7703H372.434C370.463 65.9448 366.065 73.2238 359.241 78.6073C352.417 83.9149 344.001 86.5687 333.992 86.5687C326.106 86.5687 319.131 84.8627 313.065 81.4506C306.999 77.9628 302.298 73.148 298.962 67.0064C295.701 60.7889 294.071 53.6995 294.071 45.7381Z" fill="#991C1C"/>
<path d="M137.213 103.284V213.336H106.617V152.612L85.8558 213.336H60.2552L39.3376 152.144V213.336H8.74168V103.284H45.7377L73.3677 174.779L100.373 103.284H137.213ZM184.601 103.284V167.13C184.601 173.062 185.954 177.641 188.66 180.867C191.469 184.093 195.684 185.706 201.304 185.706C206.924 185.706 211.138 184.093 213.948 180.867C216.862 177.537 218.319 172.958 218.319 167.13V103.284H248.915V167.13C248.915 177.224 246.781 185.862 242.515 193.043C238.248 200.119 232.42 205.479 225.031 209.121C217.747 212.659 209.629 214.429 200.679 214.429C191.73 214.429 183.716 212.659 176.64 209.121C169.667 205.479 164.152 200.119 160.093 193.043C156.138 185.966 154.161 177.329 154.161 167.13V103.284H184.601ZM367.695 213.336H337.099L296.356 151.832V213.336H265.76V103.284H296.356L337.099 165.569V103.284H367.695V213.336Z" fill="black"/>
<path d="M6.37516 316.349C16.2576 308.606 24.3572 301.933 30.6739 296.329C36.9905 290.726 42.2883 284.969 46.5673 279.06C50.8464 273.049 52.9859 267.344 52.9859 261.944C52.9859 258.684 52.2218 256.137 50.6935 254.303C49.2672 252.469 47.1277 251.552 44.275 251.552C41.3205 251.552 39.0281 252.826 37.398 255.373C35.7679 257.818 35.0038 261.435 35.1057 266.223H6.06951C6.37516 257.156 8.36184 249.667 12.0296 243.758C15.6973 237.747 20.4857 233.366 26.3948 230.616C32.304 227.763 38.8753 226.337 46.1089 226.337C58.6403 226.337 67.9624 229.444 74.0753 235.659C80.1882 241.873 83.2446 249.922 83.2446 259.805C83.2446 270.4 79.6788 280.334 72.5471 289.605C65.5173 298.876 56.7045 307.179 46.1089 314.515H84.3144V338.814H6.37516V316.349ZM94.2991 282.881C94.2991 265.357 97.865 251.552 104.997 241.466C112.128 231.38 123.335 226.337 138.618 226.337C153.9 226.337 165.107 231.38 172.238 241.466C179.472 251.552 183.089 265.357 183.089 282.881C183.089 300.608 179.523 314.515 172.391 324.601C165.26 334.687 154.002 339.731 138.618 339.731C123.233 339.731 111.976 334.687 104.844 324.601C97.8141 314.515 94.2991 300.608 94.2991 282.881ZM153.441 282.881C153.441 273.711 152.473 266.733 150.538 261.944C148.602 257.054 144.629 254.609 138.618 254.609C132.607 254.609 128.633 257.054 126.697 261.944C124.762 266.733 123.794 273.711 123.794 282.881C123.794 292.254 124.711 299.385 126.545 304.276C128.48 309.064 132.505 311.458 138.618 311.458C144.73 311.458 148.704 309.064 150.538 304.276C152.473 299.385 153.441 292.254 153.441 282.881ZM193.821 316.349C203.703 308.606 211.803 301.933 218.12 296.329C224.436 290.726 229.734 284.969 234.013 279.06C238.292 273.049 240.432 267.344 240.432 261.944C240.432 258.684 239.668 256.137 238.139 254.303C236.713 252.469 234.573 251.552 231.721 251.552C228.766 251.552 226.474 252.826 224.844 255.373C223.214 257.818 222.45 261.435 222.551 266.223H193.515C193.821 257.156 195.808 249.667 199.475 243.758C203.143 237.747 207.931 233.366 213.841 230.616C219.75 227.763 226.321 226.337 233.555 226.337C246.086 226.337 255.408 229.444 261.521 235.659C267.634 241.873 270.69 249.922 270.69 259.805C270.69 270.4 267.125 280.334 259.993 289.605C252.963 298.876 244.15 307.179 233.555 314.515H271.76V338.814H193.821V316.349ZM363.046 255.067H317.2V272.03C319.135 269.993 321.784 268.363 325.146 267.14C328.508 265.917 332.227 265.306 336.302 265.306C343.638 265.306 349.751 266.987 354.641 270.349C359.633 273.711 363.301 278.143 365.644 283.645C367.987 289.146 369.159 295.157 369.159 301.678C369.159 313.7 365.746 323.175 358.92 330.103C352.094 336.929 342.619 340.342 330.495 340.342C322.039 340.342 314.703 338.915 308.489 336.063C302.376 333.108 297.689 329.033 294.429 323.837C291.169 318.641 289.488 312.681 289.386 305.957H318.575C318.881 308.3 319.899 310.338 321.631 312.07C323.363 313.802 325.91 314.668 329.273 314.668C332.838 314.668 335.538 313.445 337.372 311C339.206 308.555 340.123 305.295 340.123 301.219C340.123 297.246 339.155 294.24 337.219 292.203C335.284 290.063 332.482 288.994 328.814 288.994C326.063 288.994 323.822 289.707 322.09 291.133C320.46 292.458 319.492 294.139 319.186 296.176H289.997V228.629H363.046V255.067Z" fill="#991C1C"/>
<path d="M4.28444 361.006V354.183H17.9311V402.012H10.3861V361.006H4.28444ZM27.2876 392.039V386.397L49.3322 354.773H58.3863V385.544H64.4879V392.039H58.3863V402.012H51.0381V392.039H27.2876ZM51.3661 362.384L35.8824 385.544H51.3661V362.384ZM74.9369 361.982V373.989C74.9369 374.802 75.1206 375.393 75.488 375.76C75.8817 376.101 76.5377 376.272 77.4563 376.272H80.2118V380.012H76.669C74.6482 380.012 73.0998 379.539 72.0238 378.595C70.9479 377.65 70.4099 376.115 70.4099 373.989V361.982H67.8511V358.321H70.4099V352.928H74.9369V358.321H80.2118V361.982H74.9369ZM96.7481 357.967C98.4015 357.967 99.8711 358.321 101.157 359.03C102.469 359.739 103.493 360.788 104.228 362.179C104.989 363.57 105.369 365.25 105.369 367.218V380.012H100.921V367.887C100.921 365.945 100.435 364.462 99.4643 363.439C98.4933 362.389 97.168 361.864 95.4884 361.864C93.8088 361.864 92.4704 362.389 91.4731 363.439C90.5021 364.462 90.0166 365.945 90.0166 367.887V380.012H85.529V350.881H90.0166V360.841C90.7777 359.922 91.7356 359.214 92.8903 358.715C94.0713 358.216 95.3572 357.967 96.7481 357.967ZM133.129 362.449V375.834H148.875V381.935H133.129V395.91H150.843V402.012H125.649V356.348H150.843V362.449H133.129ZM174.949 356.413C179.804 356.413 184.047 357.354 187.677 359.235C191.351 361.072 194.172 363.74 196.141 367.239C198.153 370.694 199.159 374.74 199.159 379.377C199.159 384.013 198.153 388.037 196.141 391.449C194.172 394.86 191.351 397.485 187.677 399.322C184.047 401.115 179.804 402.012 174.949 402.012H160.056V356.413H174.949ZM174.949 395.91C180.285 395.91 184.375 394.467 187.218 391.58C190.061 388.693 191.482 384.625 191.482 379.377C191.482 374.084 190.061 369.951 187.218 366.976C184.375 364.002 180.285 362.515 174.949 362.515H167.535V395.91H174.949ZM214.051 356.413V402.012H206.572V356.413H214.051ZM253.329 356.413V362.515H241.192V402.012H233.712V362.515H221.509V356.413H253.329ZM268.383 356.413V402.012H260.904V356.413H268.383ZM299.001 402.471C294.759 402.471 290.844 401.487 287.257 399.519C283.714 397.507 280.893 394.729 278.794 391.186C276.738 387.6 275.71 383.576 275.71 379.114C275.71 374.653 276.738 370.651 278.794 367.108C280.893 363.565 283.714 360.809 287.257 358.841C290.844 356.829 294.759 355.823 299.001 355.823C303.288 355.823 307.202 356.829 310.745 358.841C314.332 360.809 317.153 363.565 319.209 367.108C321.265 370.651 322.293 374.653 322.293 379.114C322.293 383.576 321.265 387.6 319.209 391.186C317.153 394.729 314.332 397.507 310.745 399.519C307.202 401.487 303.288 402.471 299.001 402.471ZM299.001 395.976C302.019 395.976 304.709 395.298 307.071 393.942C309.433 392.542 311.27 390.574 312.582 388.037C313.938 385.456 314.616 382.482 314.616 379.114C314.616 375.746 313.938 372.794 312.582 370.257C311.27 367.72 309.433 365.774 307.071 364.418C304.709 363.062 302.019 362.384 299.001 362.384C295.983 362.384 293.293 363.062 290.931 364.418C288.57 365.774 286.711 367.72 285.355 370.257C284.042 372.794 283.386 375.746 283.386 379.114C283.386 382.482 284.042 385.456 285.355 388.037C286.711 390.574 288.57 392.542 290.931 393.942C293.293 395.298 295.983 395.976 299.001 395.976ZM367.115 402.012H359.636L337.132 367.961V402.012H329.653V356.348H337.132L359.636 390.333V356.348H367.115V402.012Z" fill="#991C1C"/>
</svg>
